<svg width="20" height="21" viewBox="0 0 20 21" fill="none" xmlns="http://www.w3.org/2000/svg">
<path d="M9.99965 6.5C11.0605 6.5 12.0779 6.92143 12.8281 7.67157C13.5782 8.42172 13.9996 9.43913 13.9996 10.5C13.9996 11.5609 13.5782 12.5783 12.8281 13.3284C12.0779 14.0786 11.0605 14.5 9.99965 14.5C8.93878 14.5 7.92137 14.0786 7.17122 13.3284C6.42108 12.5783 5.99965 11.5609 5.99965 10.5C5.99965 9.43913 6.42108 8.42172 7.17122 7.67157C7.92137 6.92143 8.93878 6.5 9.99965 6.5ZM9.99965 8.5C9.46922 8.5 8.96051 8.71071 8.58543 9.08579C8.21036 9.46086 7.99965 9.96957 7.99965 10.5C7.99965 11.0304 8.21036 11.5391 8.58543 11.9142C8.96051 12.2893 9.46922 12.5 9.99965 12.5C10.5301 12.5 11.0388 12.2893 11.4139 11.9142C11.7889 11.5391 11.9996 11.0304 11.9996 10.5C11.9996 9.96957 11.7889 9.46086 11.4139 9.08579C11.0388 8.71071 10.5301 8.5 9.99965 8.5ZM7.99965 20.5C7.74965 20.5 7.53965 20.32 7.49965 20.08L7.12965 17.43C6.49965 17.18 5.95965 16.84 5.43965 16.44L2.94965 17.45C2.72965 17.53 2.45965 17.45 2.33965 17.23L0.339648 13.77C0.278444 13.667 0.256867 13.5452 0.278953 13.4274C0.301039 13.3096 0.365275 13.2039 0.459649 13.13L2.56965 11.47L2.49965 10.5L2.56965 9.5L0.459649 7.87C0.365275 7.79613 0.301039 7.69042 0.278953 7.57263C0.256867 7.45484 0.278444 7.33304 0.339648 7.23L2.33965 3.77C2.45965 3.55 2.72965 3.46 2.94965 3.55L5.43965 4.55C5.95965 4.16 6.49965 3.82 7.12965 3.57L7.49965 0.92C7.53965 0.68 7.74965 0.5 7.99965 0.5H11.9996C12.2496 0.5 12.4596 0.68 12.4996 0.92L12.8696 3.57C13.4996 3.82 14.0396 4.16 14.5596 4.55L17.0496 3.55C17.2696 3.46 17.5396 3.55 17.6596 3.77L19.6596 7.23C19.7896 7.45 19.7297 7.72 19.5396 7.87L17.4296 9.5L17.4996 10.5L17.4296 11.5L19.5396 13.13C19.7297 13.28 19.7896 13.55 19.6596 13.77L17.6596 17.23C17.5396 17.45 17.2696 17.54 17.0496 17.45L14.5596 16.45C14.0396 16.84 13.4996 17.18 12.8696 17.43L12.4996 20.08C12.4596 20.32 12.2496 20.5 11.9996 20.5H7.99965ZM9.24965 2.5L8.87965 5.11C7.67965 5.36 6.61965 6 5.84965 6.89L3.43965 5.85L2.68965 7.15L4.79965 8.7C4.39965 9.86667 4.39965 11.1333 4.79965 12.3L2.67965 13.86L3.42965 15.16L5.85965 14.12C6.62965 15 7.67965 15.64 8.86965 15.88L9.23965 18.5H10.7596L11.1296 15.89C12.3196 15.64 13.3696 15 14.1396 14.12L16.5696 15.16L17.3196 13.86L15.1996 12.31C15.5996 11.14 15.5996 9.87 15.1996 8.7L17.3096 7.15L16.5596 5.85L14.1496 6.89C13.3639 5.98032 12.298 5.35767 11.1196 5.12L10.7496 2.5H9.24965Z" fill="white"/>
</svg>
